<?xml version="1.0" standalone="no"?>
<!DOCTYPE svg PUBLIC "-//W3C//DTD SVG 20010904//EN"
 "http://www.w3.org/TR/2001/REC-SVG-20010904/DTD/svg10.dtd">
<svg version="1.0" xmlns="http://www.w3.org/2000/svg"
 width="1200.000000pt" height="1200.000000pt" viewBox="0 0 1200.000000 1200.000000"
 preserveAspectRatio="xMidYMid meet">
<metadata>
Created by potrace 1.14, written by Peter Selinger 2001-2017
</metadata>
<g transform="translate(0.000000,1200.000000) scale(0.100000,-0.100000)"
fill="#000000" stroke="none">
<path d="M6210 9153 c0 -4 7 -30 16 -58 8 -27 17 -61 20 -75 2 -14 7 -36 10
-50 13 -52 20 -242 10 -287 -2 -11 -8 -43 -12 -70 -5 -26 -8 -50 -9 -53 -7
-36 -40 -128 -52 -146 -8 -13 -12 -24 -9 -24 13 0 -140 -273 -163 -290 -3 -3
-21 -27 -40 -55 -19 -27 -43 -59 -53 -70 -10 -11 -49 -56 -86 -100 -90 -108
-98 -116 -524 -557 -238 -246 -251 -260 -449 -483 -100 -111 -328 -413 -384
-507 -102 -170 -180 -324 -227 -448 -14 -36 -29 -74 -33 -85 -4 -11 -9 -24
-11 -30 -1 -5 -12 -44 -23 -85 -12 -41 -24 -93 -27 -114 -3 -22 -7 -43 -10
-47 -25 -41 -24 -479 1 -551 2 -7 7 -26 9 -42 8 -46 48 -180 58 -191 4 -5 8
-15 8 -22 0 -34 145 -300 199 -365 6 -7 32 -40 57 -73 116 -149 342 -345 540
-467 194 -120 457 -234 654 -282 75 -19 165 -36 221 -43 75 -9 270 -10 314 -1
17 3 47 9 68 13 37 7 57 21 34 23 -121 12 -363 80 -379 106 -4 6 -8 8 -8 3 0
-12 -117 50 -205 108 -44 30 -108 80 -141 113 -65 64 -154 174 -154 190 0 6
-3 12 -8 14 -14 6 -79 142 -104 218 -28 84 -45 153 -52 220 -3 25 -8 68 -12
95 -3 28 -7 64 -9 80 -1 17 -6 48 -9 70 -3 22 -8 56 -11 75 -9 63 -27 112 -52
138 -7 7 -16 19 -20 25 -5 7 -53 51 -108 99 -55 47 -107 94 -116 104 -53 60
-73 130 -93 321 -2 18 -6 48 -10 65 -6 34 -14 98 -21 158 -2 19 -6 51 -9 70
-3 19 -7 63 -9 97 -1 35 -5 63 -8 63 -3 0 -7 15 -8 33 -1 17 -4 48 -6 67 -17
122 -15 137 16 169 25 27 32 29 48 19 22 -14 44 -55 36 -68 -3 -5 -1 -11 5
-15 6 -4 8 -10 5 -15 -3 -5 -1 -19 4 -32 5 -12 11 -41 14 -63 3 -22 8 -47 11
-55 3 -8 7 -28 10 -45 14 -83 18 -103 26 -135 5 -19 12 -51 15 -70 3 -19 8
-42 10 -50 2 -8 7 -31 10 -50 3 -19 15 -75 26 -125 12 -49 22 -99 23 -110 2
-16 11 -62 22 -107 1 -5 2 -12 3 -17 2 -19 33 -41 56 -41 24 0 68 37 60 50 -2
3 -7 33 -10 66 -3 32 -8 73 -10 89 -2 17 -7 59 -11 95 -6 64 -8 83 -19 170 -3
25 -7 63 -10 85 -2 22 -6 60 -10 85 -4 25 -9 65 -11 90 -7 71 -11 110 -20 175
-15 112 -4 145 47 145 32 0 61 -35 65 -79 1 -14 5 -37 8 -51 3 -14 11 -50 17
-80 6 -30 12 -59 14 -65 1 -9 10 -50 21 -105 1 -8 9 -46 17 -85 9 -38 18 -87
21 -109 4 -21 8 -42 11 -46 3 -4 7 -25 10 -46 4 -22 8 -47 11 -56 6 -21 14
-57 19 -88 2 -14 9 -49 15 -78 7 -30 13 -59 14 -65 5 -37 48 -60 83 -44 26 12
32 33 26 89 -2 24 -6 61 -8 83 -2 22 -4 40 -5 40 -1 0 -3 21 -5 47 -2 25 -6
64 -10 85 -9 54 -18 141 -19 185 0 21 -3 38 -6 38 -3 0 -5 12 -6 28 0 24 -17
171 -30 272 -3 19 -7 61 -9 92 -4 52 -2 59 21 77 24 19 28 19 55 5 16 -8 30
-21 30 -29 2 -17 5 -34 9 -37 1 -2 4 -16 6 -33 2 -16 9 -50 14 -75 11 -50 20
-95 25 -125 10 -61 16 -92 21 -106 2 -10 6 -30 9 -45 2 -16 10 -63 19 -104 8
-41 17 -88 20 -105 3 -16 7 -41 11 -55 3 -14 7 -38 10 -55 2 -16 8 -52 14 -80
22 -118 3 -189 -88 -330 -65 -100 -92 -158 -97 -207 -1 -10 -3 -21 -4 -25 -4
-14 2 -58 22 -158 11 -55 22 -111 24 -125 40 -210 49 -239 116 -346 32 -52 89
-112 107 -115 3 0 15 -3 26 -5 43 -10 92 -11 125 -2 41 12 119 67 120 86 0 6
4 12 10 12 14 0 31 72 35 153 14 247 17 384 19 1035 2 781 2 783 -51 864 -29
44 -31 47 -99 119 -59 64 -113 136 -130 178 -16 37 -20 53 -28 133 -3 26 -6
51 -7 55 -1 4 -1 10 0 13 1 3 3 61 5 130 4 112 7 141 21 215 14 72 45 178 56
189 5 6 9 18 9 28 0 10 4 18 9 18 5 0 11 10 15 23 13 50 106 125 180 144 29 8
145 7 180 -1 56 -13 146 -77 146 -104 0 -7 5 -12 10 -12 6 0 10 -6 10 -14 0
-8 4 -16 8 -18 13 -5 74 -144 88 -200 2 -10 7 -28 10 -40 3 -13 7 -32 9 -43 2
-11 7 -31 10 -45 10 -40 18 -111 19 -162 1 -27 3 -48 6 -48 7 0 4 -146 -4
-180 -3 -14 -7 -35 -10 -47 -9 -43 -88 -163 -152 -232 -41 -44 -94 -162 -95
-214 -1 -26 0 -50 4 -53 3 -3 2 -16 -3 -29 -5 -13 -6 -26 -2 -29 6 -7 9 -36
15 -157 2 -42 6 -80 9 -85 2 -5 5 -21 6 -37 3 -55 77 -145 141 -173 85 -36
163 -33 236 10 50 30 278 261 370 376 38 47 97 128 131 180 58 89 162 282 168
312 2 7 9 27 15 43 13 30 40 114 41 127 0 4 7 26 15 48 8 22 12 40 10 40 -3 0
0 11 5 24 5 14 12 49 15 78 3 29 8 67 10 83 11 73 6 321 -8 390 -9 45 -20 120
-19 128 1 4 -1 7 -5 7 -5 0 -9 10 -9 23 -1 24 -41 164 -52 181 -3 6 -7 17 -8
24 -2 8 -6 21 -10 30 -4 9 -8 19 -9 22 -23 61 -38 94 -88 195 -33 66 -75 143
-94 172 -18 29 -33 56 -33 62 0 5 -3 11 -7 13 -5 2 -26 30 -48 63 -22 33 -56
81 -75 106 -19 25 -42 56 -50 68 -8 13 -24 33 -35 46 -11 12 -40 47 -65 76
-100 119 -296 319 -404 412 -34 29 -70 60 -81 70 -42 39 -135 108 -135 100z"/>
<path d="M5675 3289 c-4 -6 -5 -12 -2 -15 2 -3 7 2 10 11 7 17 1 20 -8 4z"/>
<path d="M5750 3280 c0 -5 5 -10 11 -10 5 0 7 5 4 10 -3 6 -8 10 -11 10 -2 0
-4 -4 -4 -10z"/>
<path d="M6021 3274 c0 -11 3 -14 6 -6 3 7 2 16 -1 19 -3 4 -6 -2 -5 -13z"/>
<path d="M6105 3280 c-3 -6 1 -7 9 -4 18 7 21 14 7 14 -6 0 -13 -4 -16 -10z"/>
<path d="M6179 3273 c-13 -16 -12 -17 3 -5 13 10 17 10 21 0 4 -8 6 -7 6 5 1
9 -3 17 -8 17 -5 0 -15 -8 -22 -17z"/>
<path d="M6316 3271 c-10 -11 -15 -24 -12 -30 3 -5 1 -11 -6 -13 -7 -3 -8 -7
-3 -10 6 -3 16 0 23 8 7 8 8 14 2 14 -5 0 -10 5 -10 11 0 5 6 7 13 3 6 -4 9
-4 5 1 -4 4 -3 14 3 22 18 20 4 15 -15 -6z"/>
<path d="M6515 3280 c3 -5 8 -10 11 -10 2 0 4 5 4 10 0 6 -5 10 -11 10 -5 0
-7 -4 -4 -10z"/>
<path d="M5694 3272 c3 -5 0 -13 -6 -15 -9 -4 -10 -6 -1 -6 17 -1 25 16 12 25
-7 4 -9 3 -5 -4z"/>
<path d="M6375 3271 c-3 -5 -1 -12 5 -16 6 -4 8 -11 5 -16 -8 -12 -35 -11 -35
2 0 5 4 7 10 4 6 -4 7 1 3 11 -5 15 -7 15 -15 0 -5 -9 -7 -20 -3 -25 3 -5 -4
-12 -15 -16 -11 -3 -19 -9 -17 -13 2 -7 -8 -13 -20 -11 -5 1 -15 2 -23 3 -8 0
-14 7 -12 14 1 6 -5 12 -14 12 -8 0 -13 -4 -9 -9 3 -5 1 -12 -5 -16 -6 -4 -8
-10 -5 -15 3 -5 1 -11 -4 -14 -10 -7 -9 20 2 30 4 4 1 14 -6 22 -10 13 -9 14
2 7 10 -5 12 -4 7 3 -5 8 -2 10 8 6 17 -7 22 11 7 21 -15 8 -41 -24 -34 -42 5
-12 3 -14 -7 -8 -10 6 -12 4 -6 -11 4 -10 3 -15 -1 -10 -11 11 -10 50 2 58 5
4 0 6 -12 5 -12 0 -19 -5 -17 -9 3 -4 0 -8 -5 -8 -6 0 -11 6 -11 14 0 8 -8 17
-17 21 -15 5 -16 4 -5 -6 21 -22 13 -33 -9 -13 -13 12 -19 14 -17 5 2 -7 -3
-16 -11 -19 -9 -3 -11 0 -6 9 5 8 4 10 0 6 -11 -10 -15 -37 -6 -37 4 0 11 3
15 7 14 14 33 10 44 -8 10 -15 9 -19 0 -17 -7 2 -12 -2 -11 -9 1 -6 -5 -17
-15 -25 -15 -12 -16 -11 -3 5 7 9 10 17 6 17 -4 0 -2 7 5 15 12 15 0 22 -14 8
-10 -10 -76 -11 -82 -2 -7 12 -34 11 -34 -1 0 -5 6 -10 14 -10 8 0 17 -4 21
-10 3 -5 -7 -5 -25 1 -16 6 -27 15 -24 20 3 5 1 9 -5 9 -5 0 -11 -5 -13 -12
-3 -8 -7 -6 -11 5 -3 9 -1 19 5 23 7 5 8 2 3 -7 -7 -11 -6 -12 6 -3 8 6 28 11
46 9 21 -1 30 2 26 9 -4 6 -2 7 3 3 5 -5 9 -14 9 -20 0 -5 5 -12 11 -14 6 -2
11 3 11 12 0 8 -5 15 -11 15 -6 1 0 10 13 20 13 11 19 20 13 20 -6 0 -17 -6
-24 -13 -7 -8 -26 -12 -42 -10 -15 2 -34 -1 -41 -7 -8 -7 -15 -7 -19 -1 -3 5
0 11 6 14 7 2 9 8 5 13 -9 9 -28 -16 -21 -27 2 -4 -5 -7 -16 -6 -11 1 -20 5
-20 10 0 5 -7 7 -15 3 -8 -3 -15 -1 -15 3 0 5 6 11 13 14 6 3 2 4 -9 4 -13 -1
-20 -6 -17 -14 3 -8 -2 -11 -16 -8 -12 2 -21 -1 -21 -6 0 -6 -5 -7 -10 -4 -8
5 -7 11 1 21 7 9 8 14 1 14 -6 0 -13 -6 -15 -12 -4 -9 -6 -8 -7 2 0 10 -5 7
-14 -8 -12 -23 -13 -23 -31 -5 -18 17 -19 17 -12 0 5 -13 3 -17 -5 -14 -7 2
-12 13 -10 23 3 18 3 18 -11 -1 -17 -22 -37 -26 -50 -10 -5 6 -7 3 -4 -7 5
-15 -17 -34 -35 -30 -8 2 -12 -14 -9 -31 1 -4 -7 -4 -16 1 -27 13 -72 9 -84
-8 -9 -13 -10 -13 -6 1 3 9 0 22 -6 29 -9 10 -9 11 3 5 21 -13 61 -15 54 -4
-7 12 19 7 28 -6 4 -5 10 -6 15 -2 4 5 1 12 -6 16 -9 6 -10 11 -2 15 6 4 11 3
11 -2 0 -5 7 -9 15 -9 8 0 12 4 9 9 -3 4 0 8 5 8 6 0 11 8 11 18 -1 16 -1 16
-11 0 -5 -10 -15 -18 -21 -18 -6 0 -5 7 3 18 12 15 11 15 -8 -1 -20 -18 -22
-18 -33 0 -9 13 -10 14 -7 2 7 -22 -11 -39 -42 -39 -13 0 -21 3 -17 7 4 4 15
8 23 8 9 0 18 7 20 15 4 11 2 12 -5 2 -5 -7 -16 -10 -24 -7 -9 4 -18 0 -22
-10 -6 -17 -26 -12 -26 6 0 6 5 7 12 3 7 -4 8 -3 4 5 -4 6 -11 9 -16 6 -4 -3
-10 0 -12 7 -3 7 -7 5 -11 -6 -4 -11 -3 -15 4 -10 7 4 10 1 7 -6 -2 -7 -12
-14 -22 -16 -12 -2 -16 2 -11 14 5 13 1 12 -16 -4 -20 -17 -22 -17 -16 -1 10
27 -1 20 -17 -12 -14 -26 -14 -30 0 -35 12 -5 14 -1 9 17 -5 17 -4 19 4 7 7
-10 11 -11 11 -2 0 6 5 12 11 12 5 0 8 -4 5 -8 -6 -10 34 -10 50 1 7 4 15 0
18 -9 9 -23 7 -31 -4 -14 -5 8 -12 11 -16 7 -4 -3 -1 -13 6 -22 8 -10 9 -15 1
-15 -6 0 -11 5 -11 11 0 5 -4 7 -10 4 -6 -4 -7 1 -3 12 6 15 4 16 -8 6 -12
-10 -18 -10 -27 -1 -16 16 -15 -4 1 -21 10 -11 9 -12 -2 -6 -11 6 -13 4 -8
-11 5 -14 2 -12 -12 6 -15 18 -23 22 -31 14 -12 -12 -60 3 -60 19 0 5 -5 5
-10 2 -6 -4 -8 -10 -5 -15 3 -5 -4 -14 -15 -20 -18 -10 -19 -14 -9 -28 7 -9 0
-5 -15 11 -15 15 -25 31 -22 36 3 4 -3 16 -14 26 -11 10 -20 14 -20 9 0 -5 -5
-2 -11 6 -9 12 -10 12 -5 -3 4 -12 2 -17 -6 -14 -7 2 -12 11 -10 21 2 10 -4
16 -15 16 -10 0 -14 -4 -8 -8 16 -12 16 -29 -2 -43 -14 -12 -15 -11 -8 11 7
24 7 24 -8 5 -11 -15 -12 -22 -4 -28 8 -6 7 -7 -3 -4 -8 2 -16 10 -16 18 -1 8
-2 21 -3 29 -1 13 -3 13 -10 1 -5 -8 -7 -21 -4 -30 3 -10 -4 -7 -16 8 -16 18
-21 20 -21 7 0 -9 4 -16 10 -16 5 0 7 -7 3 -16 -4 -11 -8 -12 -13 -4 -6 9 -9
9 -14 -1 -3 -8 -4 -4 -2 8 2 15 0 20 -10 16 -7 -2 -10 -12 -8 -21 4 -12 0 -10
-14 6 -11 12 -24 22 -28 22 -4 0 1 -9 11 -20 19 -21 7 -28 -13 -8 -7 7 -12 9
-12 5 0 -4 -8 -3 -19 2 -25 14 -64 -13 -41 -29 8 -5 11 -10 5 -10 -5 0 -1 -7
9 -15 11 -8 16 -15 10 -15 -18 0 -33 16 -48 50 l-15 35 3 -42 c3 -44 1 -49
-23 -34 -9 6 -10 11 -2 15 6 4 11 13 11 19 0 7 -7 4 -15 -6 -7 -11 -11 -26 -8
-35 5 -14 3 -15 -8 -4 -19 17 -24 15 -38 -15 -9 -20 -14 -24 -21 -13 -5 8 -1
20 11 33 10 11 16 24 13 29 -3 4 -1 8 5 8 5 0 12 -5 14 -10 3 -6 4 -5 3 2 -3
17 -31 17 -31 0 0 -7 -4 -16 -10 -20 -15 -11 -42 -47 -29 -39 7 4 14 0 18 -8
3 -8 -3 -19 -12 -24 -15 -9 -14 -10 5 -8 12 0 19 5 16 11 -4 5 1 7 10 3 10 -4
14 -2 11 7 -3 7 2 13 11 13 10 0 14 -6 10 -16 -4 -13 -3 -13 8 1 9 11 18 14
28 7 8 -5 9 -9 3 -9 -7 0 -11 -15 -11 -34 1 -25 4 -32 13 -26 6 6 14 7 17 3 4
-3 14 0 23 8 15 12 16 11 9 -10 -5 -17 -4 -21 5 -16 6 4 9 17 6 29 -4 16 -1
23 9 23 15 0 15 -31 0 -59 -4 -7 0 -4 9 6 8 10 13 23 9 29 -3 5 0 7 8 5 8 -3
13 -10 12 -16 -2 -6 4 -9 12 -6 8 4 15 3 15 0 0 -4 -12 -11 -26 -17 -15 -5
-24 -12 -21 -16 4 -3 19 3 34 13 31 21 61 26 69 13 3 -5 0 -9 -5 -9 -6 0 -11
-8 -11 -17 0 -14 3 -13 16 5 8 12 20 22 26 22 6 0 5 -6 -3 -16 -10 -13 -10
-17 1 -24 16 -10 30 -4 30 13 0 8 -3 8 -9 -2 -5 -8 -11 -9 -15 -3 -4 6 1 15
10 20 22 12 29 63 8 55 -10 -4 -11 -10 -3 -24 6 -13 6 -19 -1 -19 -5 0 -10 7
-10 15 0 8 -4 16 -10 16 -5 1 -16 2 -22 3 -7 1 -19 -3 -27 -8 -12 -9 -13 -8
-7 4 4 8 0 6 -8 -4 -15 -19 -22 -12 -17 17 1 5 -3 6 -9 2 -6 -3 -7 0 -4 9 6
17 -5 21 -22 9 -5 -5 -1 0 9 10 14 12 15 17 6 17 -12 0 -12 2 0 9 7 5 9 11 5
13 -5 3 -4 4 2 2 6 -1 11 4 11 11 0 7 -7 11 -16 8 -9 -2 -5 3 9 11 21 13 27
13 34 2 8 -11 12 -11 25 3 9 9 13 12 9 7 -18 -23 -6 -26 13 -5 11 13 17 18 14
11 -6 -12 -3 -12 16 -1 13 7 28 12 33 11 4 -2 14 3 22 9 8 6 14 8 14 4 0 -4 8
-1 18 6 15 12 16 12 7 -1 -5 -9 -2 -8 7 2 9 10 19 14 22 9 4 -5 3 -11 -1 -14
-5 -2 -3 -3 4 -1 6 1 10 -5 8 -14 -2 -9 -4 -20 -4 -24 -1 -4 -8 -4 -18 -1 -11
4 -14 3 -9 -5 4 -7 2 -12 -4 -12 -6 0 -9 8 -6 18 4 13 1 19 -9 19 -10 0 -14
-6 -10 -16 4 -13 3 -13 -8 1 -7 9 -18 13 -25 9 -8 -4 -1 -13 18 -25 17 -9 29
-25 29 -34 -1 -14 -2 -14 -6 -1 -5 18 -63 55 -63 39 0 -6 7 -13 15 -16 8 -4
15 -10 15 -16 0 -5 -4 -6 -10 -3 -5 3 -10 1 -10 -4 0 -6 5 -11 12 -11 6 0 9
-2 6 -5 -3 -3 -13 -3 -22 1 -12 4 -14 10 -6 19 7 9 2 12 -20 12 -16 0 -27 -5
-23 -10 3 -6 -2 -16 -12 -24 -11 -7 -13 -13 -6 -13 7 0 9 -5 5 -11 -4 -7 -1
-10 7 -7 8 3 15 10 15 16 1 7 2 17 3 22 0 6 9 2 19 -7 11 -10 17 -21 15 -24
-1 -4 4 -9 12 -13 18 -6 30 10 13 18 -7 2 -2 3 12 2 14 -2 30 4 37 13 14 18
17 3 4 -18 -5 -7 -13 -11 -19 -7 -5 3 -16 -2 -23 -11 -12 -15 -12 -16 3 -10
11 4 15 2 12 -7 -3 -7 2 -13 11 -13 10 0 14 6 10 16 -3 8 -3 12 1 8 5 -4 14 3
21 15 l14 23 -7 -25 c-6 -22 -5 -23 10 -11 10 9 16 10 16 2 0 -6 -5 -11 -11
-11 -5 0 -7 -5 -4 -10 4 -6 11 -7 17 -4 6 4 25 8 42 10 25 3 28 2 14 -7 -10
-5 -18 -15 -18 -21 0 -7 5 -6 15 2 8 6 19 9 25 5 7 -4 9 2 6 19 -3 14 -1 26 4
26 5 0 9 -8 9 -17 0 -10 1 -29 3 -42 2 -15 -3 -26 -12 -28 -12 -4 -12 -3 -1 5
9 7 10 12 2 16 -6 4 -11 2 -11 -4 0 -6 -5 -8 -12 -3 -17 10 -39 13 -34 4 3 -4
-4 -8 -15 -8 -12 -1 -18 3 -16 10 3 7 9 11 15 10 5 -1 13 4 16 12 7 18 -8 20
-26 3 -16 -16 -80 -19 -71 -4 4 6 0 5 -9 -1 -8 -7 -17 -11 -19 -9 -2 2 -5 -6
-5 -19 -2 -19 3 -22 22 -20 14 1 33 10 44 20 11 10 20 13 20 7 0 -6 -10 -18
-21 -26 -22 -15 -22 -15 -1 -13 11 0 20 4 20 7 -1 17 4 18 21 3 11 -9 17 -23
14 -32 -4 -14 -3 -14 6 -1 6 9 7 18 1 24 -22 22 -8 24 25 5 19 -12 35 -26 35
-32 0 -6 3 -7 6 -4 4 4 1 13 -6 22 -8 9 -8 15 -2 15 6 0 14 -4 17 -10 3 -5 14
-10 23 -9 14 0 14 2 -2 8 -11 4 -15 10 -10 14 6 3 16 2 24 -3 9 -5 19 -5 26 1
8 7 14 6 19 -1 3 -5 2 -10 -2 -10 -5 0 -17 -6 -28 -13 -15 -12 -16 -15 -4 -22
8 -5 11 -5 7 0 -5 5 6 17 22 27 37 22 40 22 40 1 0 -24 8 -12 14 21 4 23 3 26
-10 16 -11 -10 -18 -9 -31 1 -14 12 -16 12 -8 0 5 -10 4 -12 -3 -7 -23 14 -12
23 28 23 30 0 40 -4 36 -14 -7 -16 6 -17 22 -1 16 16 15 31 0 22 -7 -4 -9 -3
-5 1 10 12 39 16 32 5 -3 -5 -1 -11 4 -14 13 -8 34 21 25 36 -5 10 -4 10 6 1
11 -10 10 -16 -5 -33 -18 -20 -8 -29 12 -9 8 8 17 8 31 0 29 -16 37 -14 21 5
-9 12 -3 10 21 -5 37 -22 55 -27 45 -12 -3 5 0 13 6 17 8 4 9 3 5 -4 -9 -15
-1 -15 27 -1 21 10 21 10 3 -5 -11 -9 -24 -16 -29 -16 -4 0 -5 -5 -1 -11 3 -6
-8 -3 -26 6 -17 9 -34 14 -37 11 -3 -3 2 -8 11 -12 9 -3 16 -11 16 -17 0 -5
-8 -3 -18 6 -10 10 -22 14 -25 10 -4 -3 -7 -1 -7 5 0 7 -5 12 -12 12 -6 0 -8
-3 -5 -7 4 -3 2 -12 -3 -18 -7 -9 -5 -18 7 -31 10 -11 15 -15 11 -10 -15 19
-8 26 11 14 11 -7 18 -15 16 -18 -2 -4 3 -7 12 -7 13 0 11 4 -6 18 -12 10 -17
20 -12 23 5 3 14 -1 21 -9 17 -20 44 -19 61 2 12 14 12 16 -1 9 -8 -4 -4 1 10
12 19 16 28 18 44 10 30 -16 46 -35 38 -43 -4 -4 4 -2 17 5 19 10 25 10 32 -1
5 -9 11 -10 21 -2 18 16 30 17 37 4 8 -12 61 7 61 22 0 9 -14 9 -24 0 -11 -12
-76 -10 -76 1 0 6 -5 4 -10 -4 -7 -11 -10 -11 -10 -2 0 7 -4 10 -10 7 -5 -3
-10 -1 -10 5 0 7 7 9 16 6 12 -5 14 -1 10 17 l-6 22 11 -22 c11 -21 49 -28 49
-9 0 5 6 1 14 -10 14 -18 15 -18 21 -1 6 14 10 15 22 6 12 -10 13 -8 9 14 -2
15 -1 29 4 32 5 3 7 -3 5 -13 -5 -29 11 -50 27 -34 15 15 44 16 53 2 4 -7 -3
-8 -21 -4 -19 5 -25 4 -20 -5 4 -6 11 -9 16 -6 4 3 10 -1 13 -8 3 -8 -1 -14
-9 -14 -7 0 -16 7 -19 15 -4 11 -8 12 -20 2 -12 -10 -15 -10 -15 1 -1 9 -4 8
-11 -4 -14 -24 -4 -34 17 -16 14 11 19 10 33 -7 14 -17 19 -19 29 -7 7 7 10
17 7 22 -3 5 4 12 15 16 12 4 17 11 13 18 -4 7 0 7 10 -1 13 -12 18 -11 28 7
13 19 13 19 31 -2 11 -13 15 -24 9 -30 -13 -13 -31 1 -24 18 7 19 -1 19 -16 1
-10 -12 -7 -18 19 -31 17 -9 29 -19 26 -23 -3 -4 4 -9 15 -9 10 -1 19 3 19 8
0 6 -4 8 -9 5 -5 -3 -14 1 -21 9 -11 13 -9 15 8 12 12 -2 25 -6 28 -10 12 -12
32 -8 37 8 4 8 1 17 -5 21 -7 5 -8 2 -3 -6 6 -9 4 -11 -5 -5 -9 6 -11 4 -5 -4
6 -10 3 -11 -12 -2 -11 6 -24 7 -28 3 -5 -4 -5 -2 -1 5 3 6 2 14 -4 18 -5 3
-10 14 -9 23 0 12 3 10 10 -7 8 -20 11 -22 26 -10 10 8 14 9 10 2 -9 -14 32
-14 51 0 8 6 17 6 25 -2 10 -7 17 -7 24 0 8 8 17 8 31 0 14 -8 23 -8 27 -1 4
6 16 8 27 4 17 -5 18 -3 9 15 -10 17 -9 20 4 15 8 -3 12 -11 9 -16 -4 -6 -1
-8 7 -6 8 3 13 12 11 19 -3 11 -1 12 10 1 11 -11 10 -14 -1 -21 -7 -5 -9 -11
-4 -14 6 -4 20 3 33 15 22 21 22 21 16 0 -6 -17 -3 -19 14 -15 19 5 20 7 5 29
-11 17 -12 25 -3 30 7 4 8 3 4 -5 -4 -6 0 -14 8 -17 9 -3 14 -10 11 -14 -10
-16 24 -18 37 -3 11 15 11 16 -7 9 -15 -5 -17 -4 -8 5 12 12 37 3 28 -11 -3
-5 4 -8 15 -7 25 2 25 6 3 24 -13 10 -8 9 15 -2 28 -13 31 -19 21 -31 -9 -11
-15 -12 -25 -3 -8 6 -14 7 -14 2 0 -5 -16 -10 -35 -11 -55 -3 -65 -5 -65 -13
0 -11 42 -7 59 5 12 9 13 7 7 -9 -4 -11 -4 -16 0 -12 4 4 14 1 23 -5 13 -10
14 -10 4 2 -18 20 -16 35 2 20 11 -10 18 -10 29 -1 11 9 15 9 19 -1 3 -10 10
-8 23 6 13 13 13 16 2 7 -9 -7 -19 -8 -22 -3 -8 13 20 23 39 15 17 -6 17 17 0
29 -16 12 -27 9 -20 -4 4 -7 -2 -3 -13 9 -11 12 -22 20 -24 18 -3 -3 -5 2 -5
12 0 14 3 13 16 -3 9 -11 23 -18 31 -16 9 1 26 -7 38 -18 12 -11 22 -19 23
-18 0 2 2 13 3 25 2 13 6 26 11 30 4 5 4 -3 0 -17 -7 -22 -6 -24 9 -11 9 8 15
20 12 27 -3 9 0 11 11 7 11 -4 14 -2 9 5 -5 8 -2 10 8 6 11 -4 14 0 11 15 -3
19 -1 20 18 10 32 -17 35 -23 8 -14 -15 4 -21 3 -17 -3 3 -5 -5 -17 -19 -26
-30 -20 -32 -32 -5 -32 12 0 19 5 16 12 -3 7 2 10 14 7 11 -3 24 4 34 19 14
19 18 20 26 8 5 -8 6 -18 3 -24 -4 -5 1 -7 11 -3 10 4 21 7 24 7 4 0 0 5 -8
11 -11 8 -9 9 10 4 20 -6 23 -5 13 6 -10 10 -9 16 4 31 10 11 11 18 5 18 -7 0
-12 5 -12 11 0 8 4 8 14 0 11 -9 15 -8 20 5 8 22 8 26 -4 19 -5 -3 -19 -1 -30
5 -16 9 -22 8 -26 -5 -3 -8 -11 -15 -16 -15 -6 0 -6 6 1 14 10 11 9 16 -5 24
-11 6 -13 11 -5 16 6 4 11 12 11 18 0 7 -5 7 -14 -1 -8 -6 -19 -10 -26 -9 -7
2 -15 -3 -17 -10 -3 -6 1 -10 9 -9 7 2 10 2 6 0 -5 -3 -8 -12 -9 -21 0 -14 -2
-13 -9 3 -5 12 -9 14 -9 6 -1 -8 -4 -12 -7 -9 -3 4 -1 15 5 27 7 13 8 22 1 26
-5 3 -10 3 -10 -2 0 -4 -4 -14 -9 -22 -7 -10 -13 -11 -31 -1 -21 11 -22 10
-16 -6 6 -15 5 -16 -5 -7 -10 10 -9 15 1 28 16 20 6 19 -25 -1 -15 -10 -25
-12 -25 -5 0 6 8 11 17 11 15 0 10 15 -5 15 -4 0 -13 4 -21 9 -10 7 -12 3 -7
-15 3 -13 3 -18 0 -11 -5 10 -9 10 -22 0 -9 -7 -13 -8 -10 -3 4 6 -2 16 -13
23 -23 15 -24 9 -3 -26 13 -22 10 -20 -16 8 -21 23 -30 28 -25 15 3 -11 2 -16
-2 -11 -4 4 -8 18 -8 31 -1 14 1 22 3 20 8 -8 42 15 42 28 0 8 -3 9 -8 1 -9
-14 -43 -14 -60 -1 -7 5 -15 7 -19 4 -3 -4 -12 -2 -19 4 -8 7 -14 6 -20 -2 -4
-7 -3 -9 4 -5 6 3 13 2 17 -4 3 -5 0 -10 -8 -10 -8 0 -18 -7 -21 -16 -5 -13
-4 -14 7 -6 14 12 27 7 27 -11 0 -5 -7 -7 -15 -4 -8 4 -17 2 -20 -3 -4 -6 2
-10 12 -11 11 0 13 -3 5 -6 -15 -6 -44 16 -37 27 4 7 -17 20 -31 20 -10 0 3
-26 19 -38 9 -7 17 -17 17 -23 0 -5 -8 -1 -19 10 -10 10 -25 21 -32 23 -10 4
-6 14 16 39 17 18 23 28 15 22 -8 -6 -23 -9 -32 -7 -10 2 -26 6 -35 8 -10 2
-17 9 -15 15 3 13 -5 15 -13 2z m-535 -42 c26 13 55 7 80 -18 l25 -23 -25 12
c-18 9 -25 10 -28 1 -2 -6 -8 -11 -13 -11 -6 0 -8 4 -5 9 3 5 -2 15 -11 22
-15 12 -16 12 -10 -4 4 -11 3 -16 -3 -12 -6 3 -10 -1 -10 -9 0 -8 -4 -18 -10
-21 -7 -4 -7 3 0 22 9 25 9 26 -4 10 -10 -14 -15 -15 -19 -5 -4 10 -10 8 -21
-6 -15 -19 -22 -12 -17 17 2 13 -17 7 -23 -8 -3 -8 -10 -15 -17 -15 -6 0 -9 7
-5 15 6 17 -2 19 -23 6 -8 -5 -12 -15 -9 -23 4 -9 -1 -14 -13 -14 -12 0 -15 4
-9 10 6 6 10 15 10 21 -1 5 -10 -1 -21 -14 -11 -13 -22 -21 -26 -18 -3 4 7 17
23 29 16 13 29 21 30 18 0 -3 8 1 17 8 9 8 18 9 21 3 9 -13 59 -7 64 8 3 9 9
8 21 -3 9 -8 22 -11 31 -7z m606 9 c5 4 2 -1 -5 -11 -8 -10 -20 -16 -27 -13
-7 3 -16 1 -19 -4 -3 -5 3 -11 12 -13 14 -4 13 -5 -4 -6 -17 -1 -22 4 -20 17
5 32 17 43 36 32 10 -5 22 -6 27 -2z m134 -17 c7 -14 7 -22 -1 -26 -6 -4 -8
-13 -5 -21 3 -7 1 -16 -5 -19 -5 -4 -6 -11 -3 -17 5 -7 2 -8 -5 -3 -9 5 -10
10 -2 18 7 7 5 19 -5 39 -14 28 -12 48 6 48 5 0 14 -9 20 -19z m-410 -5 c-7
-7 -13 -7 -20 0 -6 6 -3 10 10 10 13 0 16 -4 10 -10z m200 -11 c0 -8 -4 -15
-9 -15 -13 0 -22 16 -14 24 11 11 23 6 23 -9z m-1149 -22 c13 -16 12 -17 -3
-4 -10 7 -18 15 -18 17 0 8 8 3 21 -13z m953 1 c3 -8 2 -12 -4 -9 -6 3 -10 10
-10 16 0 14 7 11 14 -7z m-410 -10 c3 -8 2 -12 -4 -9 -6 3 -10 10 -10 16 0 14
7 11 14 -7z m41 6 c3 -5 1 -10 -4 -10 -6 0 -11 5 -11 10 0 6 2 10 4 10 3 0 8
-4 11 -10z m102 -12 c2 -17 0 -19 -7 -8 -5 8 -6 18 -4 22 8 12 10 10 11 -14z
m436 -3 c-7 -21 -12 -19 -10 4 0 11 5 18 9 15 4 -3 5 -11 1 -19z m71 7 c16 8
18 8 10 -1 -17 -18 -51 -21 -51 -5 0 10 4 11 10 5 7 -7 17 -6 31 1z m-1454
-17 c0 4 5 3 10 0 6 -4 8 -11 4 -16 -4 -7 -10 -7 -18 0 -8 7 -11 -1 -10 -32 1
-41 -20 -82 -37 -71 -4 2 -13 -4 -19 -15 -13 -25 -50 -24 -47 1 2 10 6 20 9
23 3 4 3 15 1 26 -5 16 -8 18 -15 7 -8 -10 -9 -10 -5 2 2 8 12 15 23 15 13 0
18 6 16 20 -2 20 -2 20 10 0 17 -28 54 -27 50 0 -2 11 -11 24 -19 29 -23 13 6
27 29 15 10 -5 18 -7 18 -4z m134 3 c-3 -4 -9 -8 -15 -8 -5 0 -9 4 -9 8 0 5 7
9 15 9 8 0 12 -4 9 -9z m496 2 c0 -5 -2 -10 -4 -10 -3 0 -8 5 -11 10 -3 6 -1
10 4 10 6 0 11 -4 11 -10z m875 -8 c-3 -3 -11 0 -18 7 -9 10 -8 11 6 5 10 -3
15 -9 12 -12z m-1115 -17 c0 -2 -5 -7 -12 -11 -6 -4 -8 -3 -4 4 4 7 -1 10 -14
9 -11 -1 -20 -8 -21 -17 0 -10 -2 -11 -6 -2 -9 22 16 43 38 31 10 -5 19 -12
19 -14z m-320 9 c0 -8 -19 -13 -24 -6 -3 5 1 9 9 9 8 0 15 -2 15 -3z m1584 -6
c-3 -4 -9 -8 -15 -8 -5 0 -9 4 -9 8 0 5 7 9 15 9 8 0 12 -4 9 -9z m-1377 -30
c-3 -7 -5 -2 -5 12 0 14 2 19 5 13 2 -7 2 -19 0 -25z m138 12 c-3 -5 -12 -10
-18 -10 -7 0 -6 4 3 10 19 12 23 12 15 0z m29 -6 c3 -8 2 -12 -4 -9 -6 3 -10
10 -10 16 0 14 7 11 14 -7z m1110 8 c3 -5 -1 -9 -9 -9 -8 0 -12 4 -9 9 3 4 7
8 9 8 2 0 6 -4 9 -8z m294 -27 c-3 -3 -9 2 -12 12 -6 14 -5 15 5 6 7 -7 10
-15 7 -18z m82 21 c0 -3 -4 -8 -10 -11 -5 -3 -10 -1 -10 4 0 6 5 11 10 11 6 0
10 -2 10 -4z m-169 -48 c-11 -11 -13 -10 -7 0 4 7 2 21 -5 30 -12 15 -11 15 6
0 16 -15 17 -20 6 -30z m-1901 13 c0 -4 -7 -8 -15 -8 -16 0 -20 9 -9 20 8 8
24 -1 24 -12z m385 9 c3 -5 1 -10 -4 -10 -6 0 -11 5 -11 10 0 6 2 10 4 10 3 0
8 -4 11 -10z m111 -12 c12 -14 13 -18 3 -10 -9 6 -18 10 -21 7 -2 -3 -5 2 -5
10 0 19 0 19 23 -7z m1461 5 c-14 -14 -19 -15 -29 -4 -11 10 -10 11 3 6 10 -4
20 -2 24 4 3 6 9 11 13 11 3 0 -1 -8 -11 -17z m-1630 -15 c-3 -8 -6 -5 -6 6
-1 11 2 17 5 13 3 -3 4 -12 1 -19z m98 4 c-3 -3 -11 0 -18 7 -9 10 -8 11 6 5
10 -3 15 -9 12 -12z m1625 8 c0 -5 -4 -10 -10 -10 -5 0 -10 5 -10 10 0 6 5 10
10 10 6 0 10 -4 10 -10z m-1645 -20 c3 -6 -1 -7 -9 -4 -18 7 -21 14 -7 14 6 0
13 -4 16 -10z m1705 0 c0 -5 -4 -10 -10 -10 -5 0 -10 5 -10 10 0 6 5 10 10 10
6 0 10 -4 10 -10z m-1625 -9 c3 -5 2 -12 -3 -15 -5 -3 -9 1 -9 9 0 17 3 19 12
6z m1614 -17 c14 -12 -19 -1 -35 12 -18 14 -18 14 6 3 14 -6 27 -13 29 -15z
m-1641 -9 c-3 -3 -9 2 -12 12 -6 14 -5 15 5 6 7 -7 10 -15 7 -18z m1372 15 c0
-5 -5 -10 -11 -10 -5 0 -7 5 -4 10 3 6 8 10 11 10 2 0 4 -4 4 -10z m96 -5 c-3
-23 -12 -26 -13 -5 -1 11 2 20 7 20 4 0 7 -7 6 -15z m-1789 -2 c-4 -3 -1 -13
6 -22 11 -14 10 -14 -5 -2 -16 12 -16 31 -1 31 4 0 3 -3 0 -7z m508 -12 c-3
-6 3 -15 12 -21 16 -10 16 -11 1 -6 -9 3 -19 0 -22 -7 -2 -7 -3 -1 -1 13 4 31
4 30 11 30 3 0 3 -4 -1 -9z m45 3 c0 -8 -19 -13 -24 -6 -3 5 1 9 9 9 8 0 15
-2 15 -3z m1071 -19 c5 4 9 1 9 -4 0 -6 -4 -11 -8 -11 -12 0 -32 22 -32 35 0
5 5 2 11 -8 6 -9 14 -15 20 -12z m-1523 -4 c2 -1 0 -6 -3 -11 -5 -8 -11 -8
-19 -1 -7 6 -17 7 -21 3 -5 -4 -5 -2 -2 5 6 9 18 10 45 4z m311 -5 c-3 -24 1
-37 10 -32 5 3 11 -1 15 -9 3 -8 0 -17 -6 -21 -7 -4 -8 -3 -4 4 8 14 -20 12
-43 -2 -11 -7 -10 -3 2 14 11 16 13 28 7 40 -6 12 -5 17 6 17 8 0 14 -5 13
-11z m64 -1 c-3 -9 -8 -14 -10 -11 -3 3 -2 9 2 15 9 16 15 13 8 -4z m290 -10
c-3 -9 -8 -14 -10 -11 -3 3 -2 9 2 15 9 16 15 13 8 -4z m1007 5 c0 -5 -2 -10
-4 -10 -3 0 -8 5 -11 10 -3 6 -1 10 4 10 6 0 11 -4 11 -10z m-1323 -6 c-3 -3
-12 -4 -19 -1 -8 3 -5 6 6 6 11 1 17 -2 13 -5z m365 -12 c-7 -2 -9 -9 -5 -15
3 -7 2 -8 -2 -4 -16 14 -14 36 3 29 10 -4 12 -7 4 -10z m618 14 c0 -2 -7 -7
-16 -10 -8 -3 -12 -2 -9 4 6 10 25 14 25 6z m-485 -18 c5 4 5 1 1 -5 -10 -18
-23 -16 -30 3 -5 13 -4 14 7 6 8 -7 18 -8 22 -4z m220 3 c3 -5 2 -12 -3 -15
-5 -3 -9 1 -9 9 0 17 3 19 12 6z m82 -13 c-3 -8 -6 -5 -6 6 -1 11 2 17 5 13 3
-3 4 -12 1 -19z m123 13 c0 -6 -4 -12 -8 -15 -5 -3 -9 1 -9 9 0 8 4 15 9 15 4
0 8 -4 8 -9z m-1136 -13 c-3 -5 -10 -6 -15 -3 -5 4 -9 1 -9 -4 0 -6 -4 -11
-10 -11 -5 0 -10 6 -10 13 0 7 11 13 24 13 14 0 22 -4 20 -8z m744 -13 c-3 -3
-9 2 -12 12 -6 14 -5 15 5 6 7 -7 10 -15 7 -18z m152 21 c0 -3 -4 -8 -10 -11
-5 -3 -10 -1 -10 4 0 6 5 11 10 11 6 0 10 -2 10 -4z m180 -8 c0 -11 -12 -10
-30 2 -12 7 -10 9 8 7 12 0 22 -5 22 -9z m115 2 c-3 -5 -12 -10 -18 -10 -7 0
-6 4 3 10 19 12 23 12 15 0z m-1078 -27 c-8 -7 -37 9 -31 19 3 5 12 4 20 -3 8
-6 13 -14 11 -16z m510 3 c-3 -8 -2 -17 4 -20 5 -2 5 -4 -1 -2 -7 1 -11 6 -10
11 1 5 -7 12 -17 16 -15 7 -14 8 6 8 16 1 21 -3 18 -13z m-192 -15 c-9 -8 -36
-10 -30 -2 2 4 11 8 20 8 8 0 13 -3 10 -6z m70 -11 c3 -5 -3 -10 -15 -10 -12
0 -18 5 -15 10 3 6 10 10 15 10 5 0 12 -4 15 -10z"/>
<path d="M5779 3213 c-13 -16 -12 -17 3 -5 9 8 23 10 29 6 8 -4 9 -3 5 4 -10
17 -21 15 -37 -5z"/>
<path d="M5876 3218 c3 -5 10 -6 15 -3 13 9 11 12 -6 12 -8 0 -12 -4 -9 -9z"/>
<path d="M6557 3210 c3 -11 9 -17 15 -14 5 3 4 12 -3 20 -16 19 -18 18 -12 -6z"/>
<path d="M4865 3080 c-3 -5 0 -12 6 -16 9 -5 7 -11 -6 -21 -11 -7 -13 -13 -6
-13 7 0 9 -5 5 -12 -4 -7 5 -2 19 11 15 14 27 21 27 16 0 -14 24 13 26 30 2
13 -1 14 -12 4 -8 -6 -14 -7 -14 -2 0 11 -38 14 -45 3z m53 -13 c6 0 10 -2 8
-4 -2 -3 -6 -3 -9 -1 -3 2 -15 -6 -28 -17 -13 -11 -18 -13 -12 -4 10 12 10 18
0 29 -10 10 -8 12 8 5 11 -4 26 -8 33 -8z"/>
<path d="M5167 3259 c7 -7 15 -10 18 -7 3 3 -2 9 -12 12 -14 6 -15 5 -6 -5z"/>
<path d="M5340 3252 c6 -12 15 -20 20 -17 4 3 11 0 13 -5 4 -7 5 -6 4 0 -2 7
-6 10 -9 8 -4 -2 -14 6 -23 17 -16 19 -16 19 -5 -3z"/>
<path d="M5530 3259 c0 -5 5 -7 10 -4 6 3 10 8 10 11 0 2 -4 4 -10 4 -5 0 -10
-5 -10 -11z"/>
<path d="M5916 3258 c3 -5 10 -6 15 -3 13 9 11 12 -6 12 -8 0 -12 -4 -9 -9z"/>
<path d="M6259 3257 c6 -8 9 -24 6 -36 -3 -16 0 -21 9 -18 8 3 18 2 22 -1 5
-4 1 1 -9 11 -11 9 -15 17 -10 17 5 0 10 10 10 22 2 18 0 20 -7 8 -7 -10 -10
-11 -10 -2 0 6 -5 12 -11 12 -8 0 -8 -4 0 -13z"/>
<path d="M6576 3259 c2 -4 13 -7 24 -6 23 2 17 10 -10 12 -10 1 -17 -2 -14 -6z"/>
<path d="M6670 3262 c0 -5 7 -9 15 -9 8 0 12 4 9 9 -3 4 -9 8 -15 8 -5 0 -9
-4 -9 -8z"/>
<path d="M5398 3253 c7 -3 16 -2 19 1 4 3 -2 6 -13 5 -11 0 -14 -3 -6 -6z"/>
<path d="M6490 3246 c0 -8 -5 -16 -12 -18 -8 -3 -7 -6 3 -10 10 -4 15 1 17 18
1 13 0 24 -3 24 -3 0 -5 -6 -5 -14z"/>
<path d="M5217 3236 c-3 -8 3 -22 14 -32 11 -10 17 -24 15 -31 -7 -16 8 -25
28 -17 15 6 15 8 -1 21 -10 8 -12 12 -5 8 7 -4 19 -2 27 5 9 7 15 8 20 0 4 -7
13 -6 28 2 19 10 21 9 9 -4 -9 -11 -10 -18 -2 -23 5 -3 10 -5 11 -3 8 34 6 45
-12 57 -12 7 -18 8 -14 2 9 -15 -8 -14 -24 2 -10 8 -12 8 -7 0 3 -6 2 -14 -4
-18 -5 -3 -11 -1 -11 4 -1 6 -2 15 -3 20 0 5 -5 13 -10 18 -5 4 -6 3 -3 -4 11
-17 -16 -22 -34 -6 -14 12 -17 12 -22 -1z m28 -16 c3 -5 12 -7 19 -4 7 3 16
-2 19 -10 4 -9 2 -16 -3 -16 -6 0 -10 6 -10 13 0 9 -2 9 -8 -1 -7 -9 -13 -8
-27 8 -10 11 -13 20 -7 20 6 0 13 -4 17 -10z"/>
<path d="M6651 3239 c0 -9 -11 -24 -23 -33 -14 -10 -17 -15 -8 -14 8 1 24 -3
36 -9 18 -11 23 -9 33 13 15 34 14 37 -8 31 -13 -3 -21 1 -24 12 -4 15 -5 15
-6 0z m33 -34 c-5 -11 -16 -12 -42 -6 -11 3 10 17 27 18 13 1 18 -3 15 -12z"/>
<path d="M6712 3231 c1 -9 -1 -23 -3 -31 -2 -8 2 -15 9 -16 6 -1 15 -3 20 -4
4 -1 14 -3 22 -4 8 0 14 -6 13 -13 -4 -21 26 -23 37 -2 7 11 16 17 23 12 23
-14 48 -10 59 10 7 14 7 22 -3 27 -18 12 -41 0 -35 -19 4 -11 2 -10 -9 3 -8
11 -15 14 -15 7 0 -7 -5 -9 -10 -6 -8 5 -7 11 1 21 6 8 7 14 2 14 -5 0 -15 -9
-23 -19 -16 -23 -32 -18 -24 7 4 10 2 13 -3 7 -4 -5 -16 -16 -25 -24 -16 -12
-18 -11 -14 16 2 19 -2 30 -10 30 -7 0 -12 -7 -12 -16z m173 -31 c3 -5 -1 -10
-10 -10 -9 0 -13 5 -10 10 3 6 8 10 10 10 2 0 7 -4 10 -10z m-110 -10 c5 -8
11 -8 20 0 8 7 16 7 19 2 3 -6 0 -15 -8 -21 -10 -9 -16 -7 -26 4 -7 9 -19 14
-27 11 -8 -3 -11 -1 -8 4 8 13 22 13 30 0z"/>
<path d="M6864 3242 c4 -3 14 -7 22 -8 9 -1 13 0 10 4 -4 3 -14 7 -22 8 -9 1
-13 0 -10 -4z"/>
<path d="M7071 3227 c-13 -21 -12 -21 5 -5 10 10 16 20 13 22 -3 3 -11 -5 -18
-17z"/>
<path d="M5035 3219 c-4 -6 -5 -12 -2 -15 2 -3 7 2 10 11 7 17 1 20 -8 4z"/>
<path d="M6950 3219 c0 -5 5 -7 10 -4 6 3 10 8 10 11 0 2 -4 4 -10 4 -5 0 -10
-5 -10 -11z"/>
<path d="M6987 3206 c4 -18 3 -19 -7 -6 -9 13 -10 12 -6 -5 5 -17 1 -20 -29
-21 -28 -1 -33 1 -24 12 6 7 18 10 27 7 14 -6 15 -5 2 9 -13 14 -16 13 -30 -6
-19 -27 -19 -68 0 -72 8 -1 23 -5 33 -9 10 -4 17 -3 17 5 0 6 -4 9 -8 6 -4 -2
-8 6 -8 20 0 13 4 24 8 24 7 0 12 -15 9 -32 0 -5 4 -8 9 -8 6 0 9 -5 8 -11 -2
-6 2 -13 8 -16 14 -5 13 29 -1 39 -6 5 -5 12 4 20 12 11 13 10 6 -2 -5 -8 -5
-12 0 -8 12 11 35 -11 28 -28 -3 -8 0 -14 6 -14 6 0 11 9 11 21 0 11 4 18 10
14 5 -3 6 -13 3 -23 -4 -13 -2 -13 11 3 l16 20 -6 -20 c-4 -15 -3 -16 4 -6 7
9 12 10 16 2 4 -6 3 -11 -3 -11 -5 0 -8 -7 -7 -15 3 -19 16 -32 17 -17 3 27 4
31 13 39 5 5 6 2 1 -6 -6 -10 -4 -12 5 -6 8 5 11 4 7 -2 -4 -6 0 -14 9 -17 10
-4 13 -2 8 6 -4 7 -3 8 4 4 18 -11 14 -29 -4 -22 -8 3 -13 2 -10 -3 3 -5 -1
-14 -9 -21 -8 -7 -15 -9 -15 -4 0 5 -5 2 -10 -6 -7 -11 -5 -18 6 -27 8 -6 16
-15 16 -20 0 -4 7 -17 15 -28 13 -17 15 -18 9 -2 -3 10 0 25 8 32 17 17 30 7
15 -12 -7 -8 -8 -13 -1 -13 5 0 12 7 16 15 6 18 27 20 24 3 -2 -7 8 -14 22
-15 l25 -2 -24 7 c-21 7 -22 9 -7 21 10 9 16 10 16 2 0 -6 5 -11 11 -11 8 0 8
4 2 13 -14 16 -12 49 1 44 6 -2 10 -13 9 -23 -3 -17 -2 -17 9 -2 11 14 14 15
35 1 21 -14 23 -14 29 1 4 9 4 20 0 23 -3 4 -6 -1 -6 -11 0 -14 -4 -15 -20 -6
-11 6 -18 16 -14 22 4 7 10 6 16 -3 7 -11 8 -10 6 3 -2 9 6 24 17 33 19 16 18
16 -7 1 -25 -15 -42 -6 -18 9 12 7 13 35 2 35 -8 0 -10 -7 -14 -50 -2 -22 -13
-26 -24 -9 -3 6 -1 16 5 22 6 6 11 16 11 21 0 6 -7 0 -16 -12 -13 -18 -13 -26
-3 -38 15 -19 8 -26 -11 -11 -18 15 -19 39 -2 52 7 6 10 18 6 28 -5 14 -9 15
-21 6 -12 -10 -13 -8 -9 14 3 16 -1 27 -10 31 -11 4 -13 2 -5 -11 6 -11 6 -24
-1 -36 -6 -13 -6 -17 0 -13 5 3 13 -1 16 -10 5 -12 2 -15 -11 -9 -10 4 -23 8
-30 9 -20 3 -28 16 -11 16 9 0 19 7 22 16 9 24 7 31 -5 11 -6 -9 -15 -15 -21
-11 -7 4 -5 10 3 16 11 8 11 9 -1 5 -8 -2 -14 -13 -12 -23 2 -18 2 -18 -12 -1
-11 14 -15 15 -19 4 -3 -8 0 -20 6 -26 7 -7 7 -11 1 -11 -6 0 -14 3 -18 8 -4
4 -13 7 -18 7 -6 0 -13 5 -15 11 -2 7 4 11 13 10 9 0 19 5 21 12 5 14 -23 17
-32 2 -3 -5 -11 -10 -17 -10 -6 0 -3 9 7 20 10 11 15 20 11 20 -4 0 -17 -10
-28 -22 -16 -18 -18 -19 -14 -5 3 11 2 16 -4 12 -10 -6 -13 3 -13 38 0 9 -4
17 -9 17 -6 0 -8 -6 -5 -14 3 -9 -4 -21 -19 -30 -27 -18 -28 -17 -15 17 7 17
6 24 -4 24 -7 0 -10 -9 -8 -21z m59 -53 c-3 -3 -13 0 -21 7 -13 10 -13 15 -3
21 13 8 35 -17 24 -28z m-103 -10 c-4 -11 -8 -13 -11 -5 -2 7 -9 9 -15 5 -7
-4 -6 1 2 10 16 20 33 13 24 -10z m262 -36 c4 5 4 2 0 -6 -6 -10 -4 -13 7 -9
18 7 46 -8 35 -19 -5 -4 -12 -1 -17 7 -7 11 -10 11 -10 2 0 -9 -8 -9 -31 3
-17 9 -28 19 -25 22 3 4 0 13 -6 22 -7 9 -1 6 13 -7 14 -12 29 -19 34 -15z
m65 13 c0 -5 -4 -10 -10 -10 -5 0 -10 5 -10 10 0 6 5 10 10 10 6 0 10 -4 10
-10z m-47 -59 c4 -1 11 -1 16 -1 10 0 7 -32 -3 -48 -7 -12 -49 -8 -53 5 -2 6
7 10 21 9 13 0 24 4 24 9 0 6 -4 9 -9 8 -5 -2 -9 2 -9 7 0 6 -4 10 -10 10 -5
0 -8 -6 -6 -12 1 -7 1 -9 -2 -5 -2 5 -13 -5 -23 -22 -10 -17 -24 -31 -29 -31
-6 0 -8 5 -5 10 3 6 -1 13 -10 16 -12 5 -7 12 22 34 25 19 43 26 53 20 8 -4
18 -8 23 -9z"/>
<path d="M7155 3044 c-16 -14 -25 -23 -18 -20 6 4 13 2 15 -4 1 -5 11 4 20 20
9 17 16 30 15 30 -1 0 -15 -12 -32 -26z"/>
<path d="M7313 3205 c0 -8 4 -12 9 -9 5 3 6 10 3 15 -9 13 -12 11 -12 -6z"/>
<path d="M4839 3194 c-7 -8 -7 -14 1 -19 6 -4 9 -1 8 6 -2 7 2 13 9 14 17 0
25 12 8 12 -8 0 -20 -6 -26 -13z"/>
<path d="M4946 3197 c3 -10 9 -15 12 -12 3 3 0 11 -7 18 -10 9 -11 8 -5 -6z"/>
<path d="M4997 3199 c7 -7 15 -10 18 -7 3 3 -2 9 -12 12 -14 6 -15 5 -6 -5z"/>
<path d="M7116 3198 c3 -4 9 -8 15 -8 5 0 9 4 9 8 0 5 -7 9 -15 9 -8 0 -12 -4
-9 -9z"/>
<path d="M7276 3193 c-6 -14 -5 -15 5 -6 7 7 10 15 7 18 -3 3 -9 -2 -12 -12z"/>
<path d="M4714 3176 c1 -8 5 -18 8 -22 4 -3 5 1 4 10 -1 8 -5 18 -8 22 -4 3
-5 -1 -4 -10z"/>
<path d="M7150 3180 c0 -5 5 -10 10 -10 6 0 10 5 10 10 0 6 -4 10 -10 10 -5 0
-10 -4 -10 -10z"/>
<path d="M4655 3160 c-3 -5 3 -7 12 -5 10 1 25 -2 33 -8 12 -9 13 -9 3 3 -15
16 -41 22 -48 10z"/>
<path d="M4806 3158 c3 -4 9 -8 15 -8 5 0 9 4 9 8 0 5 -7 9 -15 9 -8 0 -12 -4
-9 -9z"/>
<path d="M7297 3153 c5 -12 3 -14 -7 -8 -9 5 -11 4 -6 -4 4 -6 12 -9 17 -6 12
8 12 35 -1 35 -5 0 -6 -7 -3 -17z"/>
<path d="M5187 3149 c7 -7 15 -10 18 -7 3 3 -2 9 -12 12 -14 6 -15 5 -6 -5z"/>
<path d="M7330 3151 c0 -6 4 -13 10 -16 6 -3 7 1 4 9 -7 18 -14 21 -14 7z"/>
<path d="M7394 3151 c4 -5 0 -11 -6 -14 -7 -3 -3 -4 9 -4 17 1 19 4 11 14 -12
15 -22 18 -14 4z"/>
<path d="M4515 3139 c-3 -4 2 -6 10 -5 21 3 28 13 10 13 -9 0 -18 -4 -20 -8z"/>
<path d="M5086 3135 c-10 -8 -22 -12 -26 -10 -5 3 -10 -1 -13 -8 -9 -24 38
-16 50 9 6 13 10 24 10 24 -1 0 -11 -7 -21 -15z"/>
<path d="M7015 3124 c2 -19 -3 -28 -16 -31 -10 -3 -16 -9 -13 -14 3 -5 13 -5
24 1 13 7 21 7 26 -1 7 -12 24 6 24 26 0 6 -5 3 -10 -5 -9 -13 -11 -13 -20 0
-5 8 -8 20 -5 27 2 7 0 15 -5 18 -4 3 -7 -7 -5 -21z"/>
<path d="M7467 3139 c7 -7 15 -10 18 -7 3 3 -2 9 -12 12 -14 6 -15 5 -6 -5z"/>
<path d="M4736 3128 c5 -8 1 -9 -12 -4 -14 5 -16 4 -7 -4 7 -8 17 -9 28 -3 16
9 16 10 1 16 -12 5 -15 3 -10 -5z"/>
<path d="M4566 3122 c-3 -5 1 -9 9 -9 8 0 12 4 9 9 -3 4 -7 8 -9 8 -2 0 -6 -4
-9 -8z"/>
<path d="M4660 3120 c8 -5 20 -10 25 -10 6 0 3 5 -5 10 -8 5 -19 10 -25 10 -5
0 -3 -5 5 -10z"/>
<path d="M4989 3122 c-2 -21 -4 -27 -12 -38 -4 -7 0 -14 8 -17 9 -4 12 -1 8 9
-6 15 20 16 45 1 6 -5 12 -5 12 -2 0 10 -30 38 -30 28 0 -4 -7 1 -15 11 -8 11
-16 14 -16 8z"/>
<path d="M7384 3105 c-10 -8 -14 -15 -9 -15 6 0 0 -6 -12 -13 l-21 -12 26 -19
27 -20 -18 21 c-17 19 -17 21 -1 27 9 4 14 9 11 13 -4 3 1 12 11 19 9 7 14 14
11 14 -3 0 -14 -7 -25 -15z"/>
<path d="M7440 3109 c0 -5 -4 -7 -10 -4 -6 4 -7 -1 -3 -11 4 -11 8 -13 11 -6
2 7 8 10 13 7 5 -4 6 1 3 9 -7 18 -14 21 -14 5z"/>
<path d="M4626 3102 c-3 -5 1 -9 9 -9 8 0 15 4 15 9 0 4 -4 8 -9 8 -6 0 -12
-4 -15 -8z"/>
<path d="M4696 3101 c-12 -19 2 -46 25 -48 21 -2 21 -1 4 5 -11 4 -21 15 -23
24 -2 12 2 16 13 12 8 -3 15 -4 15 -1 0 9 -29 16 -34 8z"/>
<path d="M7061 3083 c-6 -14 -9 -28 -6 -31 3 -3 5 1 5 9 1 10 4 9 11 -4 7 -12
15 -15 27 -8 9 5 20 9 25 10 4 1 7 3 7 6 0 26 -2 28 -11 13 -8 -15 -13 -16
-29 -6 -12 8 -15 15 -9 19 7 4 7 9 2 12 -6 4 -15 -5 -22 -20z"/>
<path d="M7613 3091 c0 -11 5 -18 9 -15 4 3 5 11 1 19 -7 21 -12 19 -10 -4z"/>
<path d="M4574 3089 c-3 -6 -2 -15 3 -20 5 -5 9 -1 9 11 0 23 -2 24 -12 9z"/>
<path d="M4666 3081 c4 -17 3 -21 -6 -16 -9 6 -11 4 -5 -4 5 -9 11 -9 17 -3 7
7 6 16 -1 29 -11 16 -11 15 -5 -6z"/>
<path d="M7402 3078 c-15 -15 -15 -28 0 -28 6 0 8 3 5 7 -4 3 -2 12 4 20 14
16 7 17 -9 1z"/>
<path d="M7460 3080 c-8 -5 -10 -10 -5 -10 6 0 17 5 25 10 8 5 11 10 5 10 -5
0 -17 -5 -25 -10z"/>
<path d="M5003 3066 c1 -6 -7 -10 -18 -8 -12 2 -16 0 -9 -5 6 -4 10 -16 8 -26
-2 -13 1 -15 9 -9 7 5 20 8 29 7 14 -3 16 1 9 13 -4 10 -7 22 -4 28 2 6 -3 11
-11 11 -8 0 -14 -5 -13 -11z"/>
<path d="M7010 3070 c-8 -5 -18 -6 -23 -3 -11 7 -48 -27 -41 -38 8 -14 24 -11
22 4 -2 6 4 12 12 12 8 0 14 -6 13 -12 -2 -7 2 -13 8 -13 7 0 9 9 6 23 -6 21
-6 21 9 2 8 -11 12 -25 10 -32 -3 -7 1 -10 9 -7 14 6 13 50 -1 64 -5 5 -15 5
-24 0z"/>
<path d="M4628 3052 c8 -5 13 -13 12 -18 -1 -5 4 -10 12 -12 11 -3 11 -2 0 6
-8 5 -13 13 -12 18 1 5 -4 10 -12 12 -11 3 -11 2 0 -6z"/>
<path d="M5072 3055 c4 -4 3 -14 -4 -22 -8 -11 -7 -12 6 -7 19 7 21 20 4 30
-7 4 -10 4 -6 -1z"/>
<path d="M4687 3039 c7 -7 15 -10 18 -7 3 3 -2 9 -12 12 -14 6 -15 5 -6 -5z"/>
<path d="M7059 3041 c-1 -6 -2 -16 -3 -21 -1 -12 -26 -30 -40 -30 -4 0 -6 6
-3 13 7 18 -52 15 -63 -2 -4 -7 -10 -12 -14 -12 -18 3 -24 -1 -35 -21 -6 -13
-9 -15 -6 -5 3 11 -2 20 -11 24 -13 5 -13 7 -2 14 9 6 9 9 1 9 -6 0 -19 -10
-27 -22 -9 -12 -16 -18 -16 -13 0 5 -5 4 -11 -2 -6 -6 -18 -9 -25 -6 -8 3 -14
-1 -14 -8 0 -11 -2 -11 -10 1 -8 12 -11 12 -28 -3 -12 -11 -22 -14 -30 -7 -7
6 -10 7 -7 3 3 -3 -2 -15 -12 -25 -10 -12 -12 -18 -4 -18 7 0 9 -5 5 -12 -4
-7 -3 -8 4 -4 6 4 8 14 5 24 -6 15 -5 16 12 2 10 -8 16 -10 12 -3 -4 6 -3 14
3 18 5 3 10 -2 11 -12 0 -14 2 -13 10 5 5 15 13 20 21 16 9 -6 9 -9 0 -12 -7
-2 -12 -11 -12 -20 0 -13 2 -13 14 3 8 11 19 16 30 12 10 -4 15 -3 11 3 -3 6
-13 10 -21 10 -8 0 -12 5 -9 10 4 6 11 8 16 5 5 -4 19 -8 31 -10 13 -3 31 -14
41 -26 24 -30 22 -13 -3 18 -29 38 -24 53 6 18 14 -16 23 -25 20 -19 -7 14 21
27 29 14 4 -6 1 -10 -6 -10 -7 0 -9 -3 -6 -7 4 -3 16 2 27 12 17 15 20 16 25
2 4 -10 14 -13 28 -9 20 5 21 4 7 -14 -14 -18 -14 -18 2 -5 21 16 15 31 -12
31 -19 0 -33 14 -36 37 -1 7 5 9 14 6 11 -5 13 -3 7 8 -8 12 -6 12 8 0 19 -15
22 -22 8 -18 -5 1 -8 -2 -7 -8 0 -5 5 -9 10 -7 4 1 14 -2 21 -8 10 -9 16 -6
24 9 12 22 41 21 69 -1 9 -7 6 1 -7 19 -12 19 -19 38 -15 45 4 7 4 10 -1 6 -4
-4 -14 -3 -22 3 -9 9 -13 8 -14 0z m25 -30 c17 -19 17 -19 -1 -17 -23 4 -54
-15 -46 -28 4 -5 1 -6 -7 -1 -10 6 -6 13 14 27 14 11 24 24 20 29 -9 16 2 10
20 -10z m-129 -40 c-2 -9 -4 -18 -4 -20 -1 -2 -7 2 -14 8 -8 6 -18 7 -23 3 -4
-4 -3 0 4 9 6 9 18 16 26 16 7 0 12 -7 11 -16z"/>
<path d="M7420 3039 c0 -5 5 -7 10 -4 6 3 10 8 10 11 0 2 -4 4 -10 4 -5 0 -10
-5 -10 -11z"/>
<path d="M7400 3031 c0 -6 4 -13 10 -16 6 -3 7 1 4 9 -7 18 -14 21 -14 7z"/>
<path d="M4493 3015 c0 -8 4 -12 9 -9 5 3 6 10 3 15 -9 13 -12 11 -12 -6z"/>
<path d="M4776 3021 c-3 -5 5 -8 19 -7 14 0 25 4 25 9 0 10 -38 9 -44 -2z"/>
<path d="M7351 3007 c-13 -21 -12 -21 5 -5 10 10 16 20 13 22 -3 3 -11 -5 -18
-17z"/>
<path d="M7440 3020 c-9 -6 -10 -10 -3 -10 6 0 15 5 18 10 8 12 4 12 -15 0z"/>
<path d="M7530 3019 c0 -5 5 -7 10 -4 6 3 10 8 10 11 0 2 -4 4 -10 4 -5 0 -10
-5 -10 -11z"/>
<path d="M7566 3022 c-3 -5 1 -9 9 -9 8 0 12 4 9 9 -3 4 -7 8 -9 8 -2 0 -6 -4
-9 -8z"/>
<path d="M4701 2998 c-13 -21 -13 -22 2 -10 9 8 21 11 26 7 7 -3 8 0 5 9 -8
22 -17 20 -33 -6z"/>
<path d="M5107 3013 c-6 -10 0 -63 7 -71 3 -3 7 0 7 6 4 33 6 37 19 34 10 -3
9 3 -4 17 -21 23 -23 24 -29 14z"/>
<path d="M5187 2997 c-3 -8 1 -14 9 -14 16 0 19 13 5 21 -5 3 -11 0 -14 -7z"/>
<path d="M7285 3000 c-3 -6 1 -7 9 -4 18 7 21 14 7 14 -6 0 -13 -4 -16 -10z"/>
<path d="M7374 2999 c-3 -6 -3 -13 0 -16 3 -4 6 -1 6 5 0 6 7 9 15 6 8 -4 15
-4 15 -1 0 11 -30 16 -36 6z"/>
<path d="M7465 3000 c-3 -6 1 -7 9 -4 18 7 21 14 7 14 -6 0 -13 -4 -16 -10z"/>
<path d="M4776 2991 c-3 -4 6 -6 19 -3 14 2 25 6 25 8 0 8 -39 4 -44 -5z"/>
<path d="M7310 2990 c-9 -6 -10 -10 -3 -10 6 0 15 5 18 10 8 12 4 12 -15 0z"/>
<path d="M4615 2980 c3 -5 8 -10 11 -10 2 0 4 5 4 10 0 6 -5 10 -11 10 -5 0
-7 -4 -4 -10z"/>
<path d="M7335 2971 c-3 -5 -2 -12 3 -15 5 -3 9 1 9 9 0 17 -3 19 -12 6z"/>
<path d="M4755 2960 c3 -5 8 -10 11 -10 2 0 4 5 4 10 0 6 -5 10 -11 10 -5 0
-7 -4 -4 -10z"/>
<path d="M4870 2960 c0 -5 5 -10 11 -10 5 0 7 5 4 10 -3 6 -8 10 -11 10 -2 0
-4 -4 -4 -10z"/>
<path d="M4985 2960 c-3 -6 1 -7 9 -4 18 7 21 14 7 14 -6 0 -13 -4 -16 -10z"/>
<path d="M7066 2958 c3 -5 9 -6 14 -3 4 3 11 -1 13 -7 4 -8 6 -7 6 4 1 11 -6
16 -18 15 -11 0 -17 -5 -15 -9z"/>
<path d="M5506 2951 c-4 -5 -3 -16 0 -25 7 -17 53 -18 69 -1 13 14 17 35 6 35
-11 0 -32 -25 -26 -32 3 -2 -3 -4 -13 -3 -19 1 -28 13 -16 23 4 4 4 1 -1 -7
-5 -10 -4 -12 4 -7 6 4 9 12 6 17 -8 12 -22 12 -29 0z"/>
<path d="M4815 2940 c3 -5 8 -10 11 -10 2 0 4 5 4 10 0 6 -5 10 -11 10 -5 0
-7 -4 -4 -10z"/>
<path d="M4900 2940 c-9 -6 -10 -10 -3 -10 6 0 15 5 18 10 8 12 4 12 -15 0z"/>
<path d="M4995 2940 c-3 -5 -1 -10 4 -10 6 0 11 5 11 10 0 6 -2 10 -4 10 -3 0
-8 -4 -11 -10z"/>
<path d="M7054 2942 c3 -6 -2 -15 -11 -21 -10 -6 -13 -11 -7 -11 20 0 37 27
23 36 -7 4 -9 3 -5 -4z"/>
<path d="M7110 2946 c0 -2 7 -7 16 -10 8 -3 12 -2 9 4 -6 10 -25 14 -25 6z"/>
<path d="M5736 2933 c-14 -14 -5 -24 17 -18 12 3 18 3 12 -2 -11 -8 -18 -33
-10 -33 2 0 9 9 15 20 8 15 6 21 -9 29 -10 6 -21 7 -25 4z"/>
<path d="M6274 2928 c-4 -7 -3 -8 4 -4 19 11 14 -5 -5 -20 -17 -12 -17 -14 2
-31 11 -10 14 -11 7 -3 -14 17 -16 34 -2 25 6 -3 10 -1 10 5 0 6 4 9 10 5 5
-3 7 -13 4 -23 -5 -15 -4 -15 5 -1 8 13 30 16 60 10 2 -1 -3 -9 -10 -18 -12
-16 -12 -17 2 -6 9 7 18 12 20 10 2 -1 3 0 2 2 -2 2 2 10 8 18 10 11 15 11 27
1 13 -10 14 -10 8 0 -4 7 -2 12 4 12 6 0 8 5 5 10 -3 6 -2 10 3 10 5 0 14 -10
20 -22 6 -13 11 -17 11 -10 1 7 5 11 10 7 14 -8 25 15 12 28 -7 7 -12 6 -17
-7 -6 -15 -7 -15 -20 1 -13 17 -15 17 -29 -1 -13 -17 -15 -18 -15 -3 0 19 -15
23 -25 7 -4 -7 -13 -6 -27 1 -14 8 -23 8 -31 0 -6 -6 -16 -7 -28 -1 -12 7 -20
6 -25 -2z m86 -8 c9 -5 19 -5 27 2 8 7 13 7 13 0 0 -5 -7 -15 -15 -22 -10 -8
-15 -9 -15 -1 0 6 -13 9 -30 7 -17 -2 -33 1 -37 7 -3 5 -1 7 5 3 6 -3 13 -2
17 4 8 12 16 12 35 0z"/>
<path d="M6957 2933 c-10 -9 -9 -23 1 -23 5 0 9 7 9 15 0 17 -1 18 -10 8z"/>
<path d="M5473 2908 c0 -13 1 -17 4 -10 3 6 9 10 14 7 5 -4 6 1 3 9 -9 23 -20
19 -21 -6z"/>
<path d="M6089 2913 c-10 -12 -10 -14 -1 -9 6 4 12 3 12 -3 0 -5 -8 -14 -17
-20 -16 -9 -16 -10 4 -8 12 0 19 5 17 9 -3 4 5 9 18 9 17 1 18 3 5 6 -9 2 -15
8 -12 13 10 17 -13 19 -26 3z"/>
<path d="M6845 2920 c3 -5 8 -10 11 -10 2 0 4 5 4 10 0 6 -5 10 -11 10 -5 0
-7 -4 -4 -10z"/>
<path d="M5153 2905 c0 -8 4 -12 9 -9 5 3 6 10 3 15 -9 13 -12 11 -12 -6z"/>
<path d="M5290 2900 c0 -5 5 -10 11 -10 5 0 7 5 4 10 -3 6 -8 10 -11 10 -2 0
-4 -4 -4 -10z"/>
<path d="M5430 2901 c0 -6 4 -13 10 -16 6 -3 7 1 4 9 -7 18 -14 21 -14 7z"/>
<path d="M5513 2885 c0 -6 8 -11 17 -11 9 0 17 5 17 11 0 6 -8 11 -17 11 -9 0
-17 -5 -17 -11z"/>
<path d="M5709 2883 c-13 -17 -13 -17 6 -3 11 8 22 16 24 17 2 2 0 3 -6 3 -6
0 -17 -8 -24 -17z"/>
<path d="M5777 2887 c-3 -8 -2 -20 3 -26 5 -9 8 -4 8 13 0 29 -3 32 -11 13z"/>
<path d="M6437 2885 c-4 -8 -3 -16 1 -19 4 -3 9 4 9 15 2 23 -3 25 -10 4z"/>
<path d="M6486 2887 c-16 -12 -16 -13 2 -13 10 0 19 6 19 13 0 7 -1 13 -2 13
-1 0 -9 -6 -19 -13z"/>
<path d="M6550 2897 c0 -2 6 -10 14 -16 11 -9 16 -9 22 1 4 7 4 10 -1 6 -4 -4
-14 -3 -22 3 -7 6 -13 9 -13 6z"/>
<path d="M6628 2893 c7 -3 16 -2 19 1 4 3 -2 6 -13 5 -11 0 -14 -3 -6 -6z"/>
<path d="M6668 2893 c7 -3 16 -2 19 1 4 3 -2 6 -13 5 -11 0 -14 -3 -6 -6z"/>
<path d="M5825 2880 c3 -5 11 -10 16 -10 6 0 7 5 4 10 -3 6 -11 10 -16 10 -6
0 -7 -4 -4 -10z"/>
<path d="M5885 2880 c3 -5 8 -10 11 -10 2 0 4 5 4 10 0 6 -5 10 -11 10 -5 0
-7 -4 -4 -10z"/>
<path d="M5940 2879 c0 -5 5 -7 10 -4 6 3 10 8 10 11 0 2 -4 4 -10 4 -5 0 -10
-5 -10 -11z"/>
<path d="M6795 2880 c-3 -5 -1 -10 4 -10 6 0 11 5 11 10 0 6 -2 10 -4 10 -3 0
-8 -4 -11 -10z"/>
<path d="M5915 2871 c-3 -5 -2 -12 3 -15 5 -3 9 1 9 9 0 17 -3 19 -12 6z"/>
<path d="M6530 2866 c0 -2 7 -7 16 -10 8 -3 12 -2 9 4 -6 10 -25 14 -25 6z"/>
<path d="M5825 2840 c-3 -6 1 -7 9 -4 18 7 21 14 7 14 -6 0 -13 -4 -16 -10z"/>
</g>
</svg>
